<svg width="32" height="33" viewBox="0 0 32 33" fill="none" xmlns="http://www.w3.org/2000/svg">
<path d="M24 30.2406C22.8889 30.2406 21.9444 29.8518 21.1667 29.074C20.3889 28.2962 20 27.3518 20 26.2406C20 26.0851 20.0111 25.924 20.0333 25.7573C20.0556 25.5906 20.0889 25.4406 20.1333 25.3073L10.7333 19.8406C10.3556 20.174 9.93333 20.4351 9.46667 20.624C9 20.8129 8.51111 20.9073 8 20.9073C6.88889 20.9073 5.94444 20.5184 5.16667 19.7406C4.38889 18.9629 4 18.0184 4 16.9073C4 15.7962 4.38889 14.8518 5.16667 14.074C5.94444 13.2962 6.88889 12.9073 8 12.9073C8.51111 12.9073 9 13.0018 9.46667 13.1906C9.93333 13.3795 10.3556 13.6406 10.7333 13.974L20.1333 8.50731C20.0889 8.37397 20.0556 8.22397 20.0333 8.05731C20.0111 7.89064 20 7.72953 20 7.57397C20 6.46286 20.3889 5.51842 21.1667 4.74064C21.9444 3.96286 22.8889 3.57397 24 3.57397C25.1111 3.57397 26.0556 3.96286 26.8333 4.74064C27.6111 5.51842 28 6.46286 28 7.57397C28 8.68509 27.6111 9.62953 26.8333 10.4073C26.0556 11.1851 25.1111 11.574 24 11.574C23.4889 11.574 23 11.4795 22.5333 11.2906C22.0667 11.1018 21.6444 10.8406 21.2667 10.5073L11.8667 15.974C11.9111 16.1073 11.9444 16.2573 11.9667 16.424C11.9889 16.5906 12 16.7518 12 16.9073C12 17.0629 11.9889 17.224 11.9667 17.3906C11.9444 17.5573 11.9111 17.7073 11.8667 17.8406L21.2667 23.3073C21.6444 22.974 22.0667 22.7129 22.5333 22.524C23 22.3351 23.4889 22.2406 24 22.2406C25.1111 22.2406 26.0556 22.6295 26.8333 23.4073C27.6111 24.1851 28 25.1295 28 26.2406C28 27.3518 27.6111 28.2962 26.8333 29.074C26.0556 29.8518 25.1111 30.2406 24 30.2406ZM24 8.90731C24.3778 8.90731 24.6944 8.77953 24.95 8.52397C25.2056 8.26842 25.3333 7.95175 25.3333 7.57397C25.3333 7.1962 25.2056 6.87953 24.95 6.62397C24.6944 6.36842 24.3778 6.24064 24 6.24064C23.6222 6.24064 23.3056 6.36842 23.05 6.62397C22.7944 6.87953 22.6667 7.1962 22.6667 7.57397C22.6667 7.95175 22.7944 8.26842 23.05 8.52397C23.3056 8.77953 23.6222 8.90731 24 8.90731ZM8 18.2406C8.37778 18.2406 8.69444 18.1129 8.95 17.8573C9.20556 17.6018 9.33333 17.2851 9.33333 16.9073C9.33333 16.5295 9.20556 16.2129 8.95 15.9573C8.69444 15.7018 8.37778 15.574 8 15.574C7.62222 15.574 7.30556 15.7018 7.05 15.9573C6.79444 16.2129 6.66667 16.5295 6.66667 16.9073C6.66667 17.2851 6.79444 17.6018 7.05 17.8573C7.30556 18.1129 7.62222 18.2406 8 18.2406ZM24 27.574C24.3778 27.574 24.6944 27.4462 24.95 27.1906C25.2056 26.9351 25.3333 26.6184 25.3333 26.2406C25.3333 25.8629 25.2056 25.5462 24.95 25.2906C24.6944 25.0351 24.3778 24.9073 24 24.9073C23.6222 24.9073 23.3056 25.0351 23.05 25.2906C22.7944 25.5462 22.6667 25.8629 22.6667 26.2406C22.6667 26.6184 22.7944 26.9351 23.05 27.1906C23.3056 27.4462 23.6222 27.574 24 27.574Z" fill="#852221"/>
</svg>
